<?xml version="1.0" standalone="no"?>
<!DOCTYPE svg PUBLIC "-//W3C//DTD SVG 20010904//EN"
 "http://www.w3.org/TR/2001/REC-SVG-20010904/DTD/svg10.dtd">
<svg version="1.0" xmlns="http://www.w3.org/2000/svg"
 width="1024.000000pt" height="1024.000000pt" viewBox="0 0 1024.000000 1024.000000"
 preserveAspectRatio="xMidYMid meet">
<metadata>
Created by potrace 1.11, written by Peter Selinger 2001-2013
</metadata>
<g transform="translate(0.000000,1024.000000) scale(0.100000,-0.100000)"
fill="#000000" stroke="none">
<path d="M0 5120 l0 -5120 5120 0 5120 0 0 5120 0 5120 -5120 0 -5120 0 0
-5120z m2966 3081 c49 -22 97 -78 113 -130 8 -28 11 -851 11 -3165 l0 -3126
-750 0 -750 0 0 3126 c0 2314 3 3137 11 3165 16 52 64 108 113 130 38 17 78
19 626 19 548 0 588 -2 626 -19z m1924 -2063 c18 -13 43 -36 54 -51 l21 -28 3
-2140 2 -2139 -750 0 -750 0 2 2139 3 2140 21 28 c11 15 36 38 54 51 l33 22
637 0 637 0 33 -22z m1880 -1333 c21 -12 44 -39 58 -65 l22 -44 0 -1458 0
-1458 -750 0 -750 0 0 1458 c0 1387 1 1459 19 1497 10 22 25 46 34 54 48 39
69 41 712 38 602 -2 621 -3 655 -22z"/>
</g>
</svg>
